<svg version="1.1" xmlns="http://www.w3.org/2000/svg" x="0" y="0" width="600" height="600" viewBox="0 0 600 600" enable-background="new 0 0 600 600" xml:space="preserve"><rect fill="#1E1E1E" width="600" height="600"/><path fill="#F1F2F2" d="M178.1 242.2l-47.5-92.6c-4.8-9.4 2-20.6 12.7-20.6h93c10.5 0 17.4 11 12.8 20.4l-45.5 92.6C198.4 252.5 183.4 252.6 178.1 242.2M249 386.1l37 73.8c7.5 14.9 29 14.7 36.1-0.4l147.6-310.7c4.4-9.3-2.5-19.9-12.8-19.8l-81.6 0c-7.8 0-14.9 4.5-18.2 11.5L248.8 368.6C246.1 374.1 246.2 380.6 249 386.1"/></svg>